<mxfile host="Electron" modified="2023-06-06T13:16:33.765Z" agent="Mozilla/5.0 (Windows NT 10.0; Win64; x64) AppleWebKit/537.36 (KHTML, like Gecko) draw.io/21.2.8 Chrome/112.0.5615.165 Electron/24.2.0 Safari/537.36" etag="wIRDGj3dclCkfjvUt60d" version="21.2.8" type="device">
  <diagram name="Page-1" id="13e1069c-82ec-6db2-03f1-153e76fe0fe0">
    <mxGraphModel dx="1024" dy="610" grid="1" gridSize="10" guides="1" tooltips="1" connect="1" arrows="1" fold="1" page="1" pageScale="1" pageWidth="1100" pageHeight="850" background="none" math="0" shadow="0">
      <root>
        <mxCell id="0" />
        <mxCell id="1" parent="0" />
        <mxCell id="7baba1c4bc27f4b0-2" value="Gateway" style="shape=umlLifeline;perimeter=lifelinePerimeter;whiteSpace=wrap;html=1;container=1;collapsible=0;recursiveResize=0;outlineConnect=0;rounded=1;shadow=0;comic=0;labelBackgroundColor=none;strokeWidth=1;fontFamily=Verdana;fontSize=12;align=center;" parent="1" vertex="1">
          <mxGeometry x="240" y="80" width="100" height="580" as="geometry" />
        </mxCell>
        <mxCell id="7baba1c4bc27f4b0-10" value="" style="html=1;points=[];perimeter=orthogonalPerimeter;rounded=0;shadow=0;comic=0;labelBackgroundColor=none;strokeWidth=1;fontFamily=Verdana;fontSize=12;align=center;" parent="7baba1c4bc27f4b0-2" vertex="1">
          <mxGeometry x="45" y="100" width="10" height="400" as="geometry" />
        </mxCell>
        <mxCell id="7baba1c4bc27f4b0-3" value=":OAuthProvider" style="shape=umlLifeline;perimeter=lifelinePerimeter;whiteSpace=wrap;html=1;container=1;collapsible=0;recursiveResize=0;outlineConnect=0;rounded=1;shadow=0;comic=0;labelBackgroundColor=none;strokeWidth=1;fontFamily=Verdana;fontSize=12;align=center;" parent="1" vertex="1">
          <mxGeometry x="400" y="80" width="100" height="580" as="geometry" />
        </mxCell>
        <mxCell id="7baba1c4bc27f4b0-13" value="" style="html=1;points=[];perimeter=orthogonalPerimeter;rounded=0;shadow=0;comic=0;labelBackgroundColor=none;strokeWidth=1;fontFamily=Verdana;fontSize=12;align=center;" parent="7baba1c4bc27f4b0-3" vertex="1">
          <mxGeometry x="45" y="120" width="10" height="140" as="geometry" />
        </mxCell>
        <mxCell id="B9X7SGs9vUSzsNQK_HK1-13" value="" style="html=1;points=[];perimeter=orthogonalPerimeter;rounded=0;shadow=0;comic=0;labelBackgroundColor=none;strokeWidth=1;fontFamily=Verdana;fontSize=12;align=center;" vertex="1" parent="7baba1c4bc27f4b0-3">
          <mxGeometry x="45" y="360" width="10" height="90" as="geometry" />
        </mxCell>
        <mxCell id="7baba1c4bc27f4b0-4" value=":InternalService" style="shape=umlLifeline;perimeter=lifelinePerimeter;whiteSpace=wrap;html=1;container=1;collapsible=0;recursiveResize=0;outlineConnect=0;rounded=1;shadow=0;comic=0;labelBackgroundColor=none;strokeWidth=1;fontFamily=Verdana;fontSize=12;align=center;" parent="1" vertex="1">
          <mxGeometry x="540" y="80" width="100" height="580" as="geometry" />
        </mxCell>
        <mxCell id="7baba1c4bc27f4b0-8" value=":Integrator" style="shape=umlLifeline;perimeter=lifelinePerimeter;whiteSpace=wrap;html=1;container=1;collapsible=0;recursiveResize=0;outlineConnect=0;rounded=1;shadow=0;comic=0;labelBackgroundColor=none;strokeWidth=1;fontFamily=Verdana;fontSize=12;align=center;" parent="1" vertex="1">
          <mxGeometry x="100" y="80" width="100" height="580" as="geometry" />
        </mxCell>
        <mxCell id="7baba1c4bc27f4b0-9" value="" style="html=1;points=[];perimeter=orthogonalPerimeter;rounded=0;shadow=0;comic=0;labelBackgroundColor=none;strokeWidth=1;fontFamily=Verdana;fontSize=12;align=center;" parent="7baba1c4bc27f4b0-8" vertex="1">
          <mxGeometry x="45" y="100" width="10" height="440" as="geometry" />
        </mxCell>
        <mxCell id="B9X7SGs9vUSzsNQK_HK1-15" style="edgeStyle=orthogonalEdgeStyle;rounded=0;orthogonalLoop=1;jettySize=auto;html=1;entryX=1.2;entryY=0.178;entryDx=0;entryDy=0;entryPerimeter=0;" edge="1" parent="1" source="7baba1c4bc27f4b0-16" target="B9X7SGs9vUSzsNQK_HK1-13">
          <mxGeometry relative="1" as="geometry">
            <Array as="points">
              <mxPoint x="540" y="456" />
              <mxPoint x="540" y="456" />
            </Array>
          </mxGeometry>
        </mxCell>
        <mxCell id="B9X7SGs9vUSzsNQK_HK1-16" value="/callback" style="edgeLabel;html=1;align=center;verticalAlign=middle;resizable=0;points=[];" vertex="1" connectable="0" parent="B9X7SGs9vUSzsNQK_HK1-15">
          <mxGeometry x="0.2031" y="2" relative="1" as="geometry">
            <mxPoint x="12" y="-8" as="offset" />
          </mxGeometry>
        </mxCell>
        <mxCell id="B9X7SGs9vUSzsNQK_HK1-19" style="edgeStyle=orthogonalEdgeStyle;rounded=0;orthogonalLoop=1;jettySize=auto;html=1;entryX=1.2;entryY=0.96;entryDx=0;entryDy=0;entryPerimeter=0;" edge="1" parent="1" source="7baba1c4bc27f4b0-16" target="7baba1c4bc27f4b0-10">
          <mxGeometry relative="1" as="geometry">
            <Array as="points">
              <mxPoint x="340" y="564" />
              <mxPoint x="340" y="564" />
            </Array>
          </mxGeometry>
        </mxCell>
        <mxCell id="B9X7SGs9vUSzsNQK_HK1-21" value="internalServiceResponse" style="edgeLabel;html=1;align=center;verticalAlign=middle;resizable=0;points=[];" vertex="1" connectable="0" parent="B9X7SGs9vUSzsNQK_HK1-19">
          <mxGeometry x="-0.1759" relative="1" as="geometry">
            <mxPoint x="-27" as="offset" />
          </mxGeometry>
        </mxCell>
        <mxCell id="7baba1c4bc27f4b0-16" value="" style="html=1;points=[];perimeter=orthogonalPerimeter;rounded=0;shadow=0;comic=0;labelBackgroundColor=none;strokeWidth=1;fontFamily=Verdana;fontSize=12;align=center;" parent="1" vertex="1">
          <mxGeometry x="585" y="220" width="10" height="410" as="geometry" />
        </mxCell>
        <mxCell id="B9X7SGs9vUSzsNQK_HK1-1" style="edgeStyle=orthogonalEdgeStyle;rounded=0;orthogonalLoop=1;jettySize=auto;html=1;" edge="1" parent="1" source="7baba1c4bc27f4b0-9">
          <mxGeometry relative="1" as="geometry">
            <mxPoint x="287" y="200" as="targetPoint" />
            <Array as="points">
              <mxPoint x="287" y="200" />
            </Array>
          </mxGeometry>
        </mxCell>
        <mxCell id="B9X7SGs9vUSzsNQK_HK1-2" value="/login" style="edgeLabel;html=1;align=center;verticalAlign=middle;resizable=0;points=[];" vertex="1" connectable="0" parent="B9X7SGs9vUSzsNQK_HK1-1">
          <mxGeometry x="0.2576" y="-1" relative="1" as="geometry">
            <mxPoint x="-28" y="-11" as="offset" />
          </mxGeometry>
        </mxCell>
        <mxCell id="B9X7SGs9vUSzsNQK_HK1-3" style="edgeStyle=orthogonalEdgeStyle;rounded=0;orthogonalLoop=1;jettySize=auto;html=1;" edge="1" parent="1" source="7baba1c4bc27f4b0-10">
          <mxGeometry relative="1" as="geometry">
            <mxPoint x="440" y="240" as="targetPoint" />
            <Array as="points">
              <mxPoint x="440" y="240" />
              <mxPoint x="440" y="240" />
            </Array>
          </mxGeometry>
        </mxCell>
        <mxCell id="B9X7SGs9vUSzsNQK_HK1-5" value="/authenticate" style="edgeLabel;html=1;align=center;verticalAlign=middle;resizable=0;points=[];" vertex="1" connectable="0" parent="B9X7SGs9vUSzsNQK_HK1-3">
          <mxGeometry x="-0.3649" y="1" relative="1" as="geometry">
            <mxPoint x="28" as="offset" />
          </mxGeometry>
        </mxCell>
        <mxCell id="B9X7SGs9vUSzsNQK_HK1-7" style="edgeStyle=orthogonalEdgeStyle;rounded=0;orthogonalLoop=1;jettySize=auto;html=1;entryX=0.9;entryY=0.245;entryDx=0;entryDy=0;entryPerimeter=0;" edge="1" parent="1" source="7baba1c4bc27f4b0-13" target="7baba1c4bc27f4b0-10">
          <mxGeometry relative="1" as="geometry">
            <Array as="points">
              <mxPoint x="330" y="278" />
              <mxPoint x="330" y="278" />
            </Array>
          </mxGeometry>
        </mxCell>
        <mxCell id="B9X7SGs9vUSzsNQK_HK1-8" value="JWT" style="edgeLabel;html=1;align=center;verticalAlign=middle;resizable=0;points=[];" vertex="1" connectable="0" parent="B9X7SGs9vUSzsNQK_HK1-7">
          <mxGeometry x="-0.1757" y="2" relative="1" as="geometry">
            <mxPoint x="-14" as="offset" />
          </mxGeometry>
        </mxCell>
        <mxCell id="B9X7SGs9vUSzsNQK_HK1-9" value="JWT" style="edgeStyle=orthogonalEdgeStyle;rounded=0;orthogonalLoop=1;jettySize=auto;html=1;entryX=1;entryY=0.261;entryDx=0;entryDy=0;entryPerimeter=0;" edge="1" parent="1" source="7baba1c4bc27f4b0-10" target="7baba1c4bc27f4b0-9">
          <mxGeometry relative="1" as="geometry">
            <Array as="points">
              <mxPoint x="260" y="295" />
              <mxPoint x="260" y="295" />
            </Array>
          </mxGeometry>
        </mxCell>
        <mxCell id="B9X7SGs9vUSzsNQK_HK1-10" style="edgeStyle=orthogonalEdgeStyle;rounded=0;orthogonalLoop=1;jettySize=auto;html=1;" edge="1" parent="1" source="7baba1c4bc27f4b0-9" target="7baba1c4bc27f4b0-10">
          <mxGeometry relative="1" as="geometry">
            <mxPoint x="280" y="400" as="targetPoint" />
            <Array as="points">
              <mxPoint x="240" y="400" />
              <mxPoint x="240" y="400" />
            </Array>
          </mxGeometry>
        </mxCell>
        <mxCell id="B9X7SGs9vUSzsNQK_HK1-11" value="/update-price&lt;br&gt;[Header: Authorization]" style="edgeLabel;html=1;align=center;verticalAlign=middle;resizable=0;points=[];" vertex="1" connectable="0" parent="B9X7SGs9vUSzsNQK_HK1-10">
          <mxGeometry x="-0.1522" y="3" relative="1" as="geometry">
            <mxPoint x="10" y="-17" as="offset" />
          </mxGeometry>
        </mxCell>
        <mxCell id="B9X7SGs9vUSzsNQK_HK1-12" style="edgeStyle=orthogonalEdgeStyle;rounded=0;orthogonalLoop=1;jettySize=auto;html=1;" edge="1" parent="1" source="7baba1c4bc27f4b0-10" target="7baba1c4bc27f4b0-4">
          <mxGeometry relative="1" as="geometry">
            <Array as="points">
              <mxPoint x="390" y="430" />
              <mxPoint x="390" y="430" />
            </Array>
          </mxGeometry>
        </mxCell>
        <mxCell id="B9X7SGs9vUSzsNQK_HK1-14" value="/api/update-price" style="edgeLabel;html=1;align=center;verticalAlign=middle;resizable=0;points=[];" vertex="1" connectable="0" parent="B9X7SGs9vUSzsNQK_HK1-12">
          <mxGeometry x="-0.6197" y="3" relative="1" as="geometry">
            <mxPoint x="29" y="-7" as="offset" />
          </mxGeometry>
        </mxCell>
        <mxCell id="B9X7SGs9vUSzsNQK_HK1-17" style="edgeStyle=orthogonalEdgeStyle;rounded=0;orthogonalLoop=1;jettySize=auto;html=1;" edge="1" parent="1" source="B9X7SGs9vUSzsNQK_HK1-13" target="7baba1c4bc27f4b0-4">
          <mxGeometry relative="1" as="geometry">
            <Array as="points">
              <mxPoint x="530" y="485" />
              <mxPoint x="530" y="485" />
            </Array>
          </mxGeometry>
        </mxCell>
        <mxCell id="B9X7SGs9vUSzsNQK_HK1-18" value="authorize" style="edgeLabel;html=1;align=center;verticalAlign=middle;resizable=0;points=[];" vertex="1" connectable="0" parent="B9X7SGs9vUSzsNQK_HK1-17">
          <mxGeometry x="-0.197" y="3" relative="1" as="geometry">
            <mxPoint x="11" y="-2" as="offset" />
          </mxGeometry>
        </mxCell>
        <mxCell id="B9X7SGs9vUSzsNQK_HK1-34" style="edgeStyle=orthogonalEdgeStyle;rounded=0;orthogonalLoop=1;jettySize=auto;html=1;entryX=0.917;entryY=0.908;entryDx=0;entryDy=0;entryPerimeter=0;" edge="1" parent="1" source="7baba1c4bc27f4b0-10" target="7baba1c4bc27f4b0-9">
          <mxGeometry relative="1" as="geometry">
            <mxPoint x="155" y="596" as="targetPoint" />
            <Array as="points">
              <mxPoint x="220" y="580" />
            </Array>
          </mxGeometry>
        </mxCell>
        <mxCell id="B9X7SGs9vUSzsNQK_HK1-35" value="response" style="edgeLabel;html=1;align=center;verticalAlign=middle;resizable=0;points=[];" vertex="1" connectable="0" parent="B9X7SGs9vUSzsNQK_HK1-34">
          <mxGeometry x="-0.1439" y="-1" relative="1" as="geometry">
            <mxPoint as="offset" />
          </mxGeometry>
        </mxCell>
        <mxCell id="B9X7SGs9vUSzsNQK_HK1-36" value="auth server" style="text;html=1;align=center;verticalAlign=middle;resizable=0;points=[];autosize=1;strokeColor=none;fillColor=none;" vertex="1" parent="1">
          <mxGeometry x="410" y="40" width="80" height="30" as="geometry" />
        </mxCell>
        <mxCell id="B9X7SGs9vUSzsNQK_HK1-37" value="client" style="text;html=1;align=center;verticalAlign=middle;resizable=0;points=[];autosize=1;strokeColor=none;fillColor=none;" vertex="1" parent="1">
          <mxGeometry x="125" y="40" width="50" height="30" as="geometry" />
        </mxCell>
        <mxCell id="B9X7SGs9vUSzsNQK_HK1-38" value="resource owner" style="text;html=1;align=center;verticalAlign=middle;resizable=0;points=[];autosize=1;strokeColor=none;fillColor=none;" vertex="1" parent="1">
          <mxGeometry x="535" y="40" width="110" height="30" as="geometry" />
        </mxCell>
        <mxCell id="B9X7SGs9vUSzsNQK_HK1-39" value="resource server" style="text;html=1;align=center;verticalAlign=middle;resizable=0;points=[];autosize=1;strokeColor=none;fillColor=none;" vertex="1" parent="1">
          <mxGeometry x="235" y="40" width="110" height="30" as="geometry" />
        </mxCell>
        <mxCell id="B9X7SGs9vUSzsNQK_HK1-40" value="" style="endArrow=none;html=1;rounded=0;" edge="1" parent="1">
          <mxGeometry width="50" height="50" relative="1" as="geometry">
            <mxPoint y="760" as="sourcePoint" />
            <mxPoint x="830" y="760" as="targetPoint" />
          </mxGeometry>
        </mxCell>
        <mxCell id="B9X7SGs9vUSzsNQK_HK1-77" value="Gateway" style="shape=umlLifeline;perimeter=lifelinePerimeter;whiteSpace=wrap;html=1;container=1;collapsible=0;recursiveResize=0;outlineConnect=0;rounded=1;shadow=0;comic=0;labelBackgroundColor=none;strokeWidth=1;fontFamily=Verdana;fontSize=12;align=center;" vertex="1" parent="1">
          <mxGeometry x="265" y="830" width="100" height="580" as="geometry" />
        </mxCell>
        <mxCell id="B9X7SGs9vUSzsNQK_HK1-78" value="" style="html=1;points=[];perimeter=orthogonalPerimeter;rounded=0;shadow=0;comic=0;labelBackgroundColor=none;strokeWidth=1;fontFamily=Verdana;fontSize=12;align=center;" vertex="1" parent="B9X7SGs9vUSzsNQK_HK1-77">
          <mxGeometry x="45" y="100" width="10" height="400" as="geometry" />
        </mxCell>
        <mxCell id="B9X7SGs9vUSzsNQK_HK1-79" value=":OAuthProvider" style="shape=umlLifeline;perimeter=lifelinePerimeter;whiteSpace=wrap;html=1;container=1;collapsible=0;recursiveResize=0;outlineConnect=0;rounded=1;shadow=0;comic=0;labelBackgroundColor=none;strokeWidth=1;fontFamily=Verdana;fontSize=12;align=center;" vertex="1" parent="1">
          <mxGeometry x="425" y="830" width="100" height="580" as="geometry" />
        </mxCell>
        <mxCell id="B9X7SGs9vUSzsNQK_HK1-80" value="" style="html=1;points=[];perimeter=orthogonalPerimeter;rounded=0;shadow=0;comic=0;labelBackgroundColor=none;strokeWidth=1;fontFamily=Verdana;fontSize=12;align=center;" vertex="1" parent="B9X7SGs9vUSzsNQK_HK1-79">
          <mxGeometry x="45" y="180" width="10" height="80" as="geometry" />
        </mxCell>
        <mxCell id="B9X7SGs9vUSzsNQK_HK1-82" value=":InternalService" style="shape=umlLifeline;perimeter=lifelinePerimeter;whiteSpace=wrap;html=1;container=1;collapsible=0;recursiveResize=0;outlineConnect=0;rounded=1;shadow=0;comic=0;labelBackgroundColor=none;strokeWidth=1;fontFamily=Verdana;fontSize=12;align=center;" vertex="1" parent="1">
          <mxGeometry x="565" y="830" width="100" height="580" as="geometry" />
        </mxCell>
        <mxCell id="B9X7SGs9vUSzsNQK_HK1-83" value=":Integrator" style="shape=umlLifeline;perimeter=lifelinePerimeter;whiteSpace=wrap;html=1;container=1;collapsible=0;recursiveResize=0;outlineConnect=0;rounded=1;shadow=0;comic=0;labelBackgroundColor=none;strokeWidth=1;fontFamily=Verdana;fontSize=12;align=center;" vertex="1" parent="1">
          <mxGeometry x="125" y="830" width="100" height="580" as="geometry" />
        </mxCell>
        <mxCell id="B9X7SGs9vUSzsNQK_HK1-84" value="" style="html=1;points=[];perimeter=orthogonalPerimeter;rounded=0;shadow=0;comic=0;labelBackgroundColor=none;strokeWidth=1;fontFamily=Verdana;fontSize=12;align=center;" vertex="1" parent="B9X7SGs9vUSzsNQK_HK1-83">
          <mxGeometry x="45" y="100" width="10" height="440" as="geometry" />
        </mxCell>
        <mxCell id="B9X7SGs9vUSzsNQK_HK1-87" style="edgeStyle=orthogonalEdgeStyle;rounded=0;orthogonalLoop=1;jettySize=auto;html=1;entryX=1.2;entryY=0.96;entryDx=0;entryDy=0;entryPerimeter=0;" edge="1" parent="1" source="B9X7SGs9vUSzsNQK_HK1-89" target="B9X7SGs9vUSzsNQK_HK1-78">
          <mxGeometry relative="1" as="geometry">
            <Array as="points">
              <mxPoint x="365" y="1314" />
              <mxPoint x="365" y="1314" />
            </Array>
          </mxGeometry>
        </mxCell>
        <mxCell id="B9X7SGs9vUSzsNQK_HK1-88" value="access-token" style="edgeLabel;html=1;align=center;verticalAlign=middle;resizable=0;points=[];" vertex="1" connectable="0" parent="B9X7SGs9vUSzsNQK_HK1-87">
          <mxGeometry x="-0.1759" relative="1" as="geometry">
            <mxPoint x="-27" as="offset" />
          </mxGeometry>
        </mxCell>
        <mxCell id="B9X7SGs9vUSzsNQK_HK1-109" style="edgeStyle=orthogonalEdgeStyle;rounded=0;orthogonalLoop=1;jettySize=auto;html=1;entryX=1.122;entryY=0.168;entryDx=0;entryDy=0;entryPerimeter=0;" edge="1" parent="1" source="B9X7SGs9vUSzsNQK_HK1-89" target="B9X7SGs9vUSzsNQK_HK1-80">
          <mxGeometry relative="1" as="geometry">
            <Array as="points">
              <mxPoint x="545" y="1023" />
            </Array>
          </mxGeometry>
        </mxCell>
        <mxCell id="B9X7SGs9vUSzsNQK_HK1-110" value="redirect" style="edgeLabel;html=1;align=center;verticalAlign=middle;resizable=0;points=[];" vertex="1" connectable="0" parent="B9X7SGs9vUSzsNQK_HK1-109">
          <mxGeometry x="0.1102" relative="1" as="geometry">
            <mxPoint x="11" y="-3" as="offset" />
          </mxGeometry>
        </mxCell>
        <mxCell id="B9X7SGs9vUSzsNQK_HK1-89" value="" style="html=1;points=[];perimeter=orthogonalPerimeter;rounded=0;shadow=0;comic=0;labelBackgroundColor=none;strokeWidth=1;fontFamily=Verdana;fontSize=12;align=center;" vertex="1" parent="1">
          <mxGeometry x="610" y="970" width="10" height="410" as="geometry" />
        </mxCell>
        <mxCell id="B9X7SGs9vUSzsNQK_HK1-90" style="edgeStyle=orthogonalEdgeStyle;rounded=0;orthogonalLoop=1;jettySize=auto;html=1;" edge="1" parent="1" source="B9X7SGs9vUSzsNQK_HK1-84">
          <mxGeometry relative="1" as="geometry">
            <mxPoint x="312" y="950" as="targetPoint" />
            <Array as="points">
              <mxPoint x="312" y="950" />
            </Array>
          </mxGeometry>
        </mxCell>
        <mxCell id="B9X7SGs9vUSzsNQK_HK1-91" value="/login" style="edgeLabel;html=1;align=center;verticalAlign=middle;resizable=0;points=[];" vertex="1" connectable="0" parent="B9X7SGs9vUSzsNQK_HK1-90">
          <mxGeometry x="0.2576" y="-1" relative="1" as="geometry">
            <mxPoint x="-28" y="-11" as="offset" />
          </mxGeometry>
        </mxCell>
        <mxCell id="B9X7SGs9vUSzsNQK_HK1-92" style="edgeStyle=orthogonalEdgeStyle;rounded=0;orthogonalLoop=1;jettySize=auto;html=1;entryX=0;entryY=0.049;entryDx=0;entryDy=0;entryPerimeter=0;" edge="1" parent="1" source="B9X7SGs9vUSzsNQK_HK1-78" target="B9X7SGs9vUSzsNQK_HK1-89">
          <mxGeometry relative="1" as="geometry">
            <mxPoint x="465" y="990" as="targetPoint" />
            <Array as="points">
              <mxPoint x="410" y="990" />
              <mxPoint x="410" y="990" />
            </Array>
          </mxGeometry>
        </mxCell>
        <mxCell id="B9X7SGs9vUSzsNQK_HK1-93" value="/authenticate" style="edgeLabel;html=1;align=center;verticalAlign=middle;resizable=0;points=[];" vertex="1" connectable="0" parent="B9X7SGs9vUSzsNQK_HK1-92">
          <mxGeometry x="-0.3649" y="1" relative="1" as="geometry">
            <mxPoint x="28" as="offset" />
          </mxGeometry>
        </mxCell>
        <mxCell id="B9X7SGs9vUSzsNQK_HK1-94" style="edgeStyle=orthogonalEdgeStyle;rounded=0;orthogonalLoop=1;jettySize=auto;html=1;" edge="1" parent="1" source="B9X7SGs9vUSzsNQK_HK1-80">
          <mxGeometry relative="1" as="geometry">
            <Array as="points">
              <mxPoint x="319" y="1050" />
            </Array>
            <mxPoint x="319" y="1050" as="targetPoint" />
          </mxGeometry>
        </mxCell>
        <mxCell id="B9X7SGs9vUSzsNQK_HK1-95" value="auth-code" style="edgeLabel;html=1;align=center;verticalAlign=middle;resizable=0;points=[];" vertex="1" connectable="0" parent="B9X7SGs9vUSzsNQK_HK1-94">
          <mxGeometry x="-0.1757" y="2" relative="1" as="geometry">
            <mxPoint x="-8" y="-2" as="offset" />
          </mxGeometry>
        </mxCell>
        <mxCell id="B9X7SGs9vUSzsNQK_HK1-96" value="auth-code" style="edgeStyle=orthogonalEdgeStyle;rounded=0;orthogonalLoop=1;jettySize=auto;html=1;" edge="1" parent="1" source="B9X7SGs9vUSzsNQK_HK1-78">
          <mxGeometry relative="1" as="geometry">
            <Array as="points">
              <mxPoint x="180" y="1060" />
            </Array>
            <mxPoint x="180" y="1060" as="targetPoint" />
          </mxGeometry>
        </mxCell>
        <mxCell id="B9X7SGs9vUSzsNQK_HK1-97" style="edgeStyle=orthogonalEdgeStyle;rounded=0;orthogonalLoop=1;jettySize=auto;html=1;" edge="1" parent="1" source="B9X7SGs9vUSzsNQK_HK1-84" target="B9X7SGs9vUSzsNQK_HK1-78">
          <mxGeometry relative="1" as="geometry">
            <mxPoint x="305" y="1150" as="targetPoint" />
            <Array as="points">
              <mxPoint x="265" y="1150" />
              <mxPoint x="265" y="1150" />
            </Array>
          </mxGeometry>
        </mxCell>
        <mxCell id="B9X7SGs9vUSzsNQK_HK1-98" value="/get-access-token&lt;br&gt;(auth-code)" style="edgeLabel;html=1;align=center;verticalAlign=middle;resizable=0;points=[];" vertex="1" connectable="0" parent="B9X7SGs9vUSzsNQK_HK1-97">
          <mxGeometry x="-0.1522" y="3" relative="1" as="geometry">
            <mxPoint x="10" y="-17" as="offset" />
          </mxGeometry>
        </mxCell>
        <mxCell id="B9X7SGs9vUSzsNQK_HK1-99" style="edgeStyle=orthogonalEdgeStyle;rounded=0;orthogonalLoop=1;jettySize=auto;html=1;" edge="1" parent="1" source="B9X7SGs9vUSzsNQK_HK1-78" target="B9X7SGs9vUSzsNQK_HK1-82">
          <mxGeometry relative="1" as="geometry">
            <Array as="points">
              <mxPoint x="415" y="1180" />
              <mxPoint x="415" y="1180" />
            </Array>
          </mxGeometry>
        </mxCell>
        <mxCell id="B9X7SGs9vUSzsNQK_HK1-100" value="/api/get-access-token&lt;br style=&quot;border-color: var(--border-color);&quot;&gt;(auth-code)" style="edgeLabel;html=1;align=center;verticalAlign=middle;resizable=0;points=[];" vertex="1" connectable="0" parent="B9X7SGs9vUSzsNQK_HK1-99">
          <mxGeometry x="-0.6197" y="3" relative="1" as="geometry">
            <mxPoint x="24" y="-17" as="offset" />
          </mxGeometry>
        </mxCell>
        <mxCell id="B9X7SGs9vUSzsNQK_HK1-103" style="edgeStyle=orthogonalEdgeStyle;rounded=0;orthogonalLoop=1;jettySize=auto;html=1;entryX=0.917;entryY=0.908;entryDx=0;entryDy=0;entryPerimeter=0;" edge="1" parent="1" source="B9X7SGs9vUSzsNQK_HK1-78" target="B9X7SGs9vUSzsNQK_HK1-84">
          <mxGeometry relative="1" as="geometry">
            <mxPoint x="180" y="1346" as="targetPoint" />
            <Array as="points">
              <mxPoint x="245" y="1330" />
            </Array>
          </mxGeometry>
        </mxCell>
        <mxCell id="B9X7SGs9vUSzsNQK_HK1-104" value="access-token" style="edgeLabel;html=1;align=center;verticalAlign=middle;resizable=0;points=[];" vertex="1" connectable="0" parent="B9X7SGs9vUSzsNQK_HK1-103">
          <mxGeometry x="-0.1439" y="-1" relative="1" as="geometry">
            <mxPoint x="-14" as="offset" />
          </mxGeometry>
        </mxCell>
        <mxCell id="B9X7SGs9vUSzsNQK_HK1-105" value="auth server" style="text;html=1;align=center;verticalAlign=middle;resizable=0;points=[];autosize=1;strokeColor=none;fillColor=none;" vertex="1" parent="1">
          <mxGeometry x="435" y="790" width="80" height="30" as="geometry" />
        </mxCell>
        <mxCell id="B9X7SGs9vUSzsNQK_HK1-106" value="client" style="text;html=1;align=center;verticalAlign=middle;resizable=0;points=[];autosize=1;strokeColor=none;fillColor=none;" vertex="1" parent="1">
          <mxGeometry x="150" y="790" width="50" height="30" as="geometry" />
        </mxCell>
        <mxCell id="B9X7SGs9vUSzsNQK_HK1-107" value="resource owner" style="text;html=1;align=center;verticalAlign=middle;resizable=0;points=[];autosize=1;strokeColor=none;fillColor=none;" vertex="1" parent="1">
          <mxGeometry x="560" y="790" width="110" height="30" as="geometry" />
        </mxCell>
        <mxCell id="B9X7SGs9vUSzsNQK_HK1-108" value="resource server" style="text;html=1;align=center;verticalAlign=middle;resizable=0;points=[];autosize=1;strokeColor=none;fillColor=none;" vertex="1" parent="1">
          <mxGeometry x="260" y="790" width="110" height="30" as="geometry" />
        </mxCell>
        <mxCell id="B9X7SGs9vUSzsNQK_HK1-111" value="Gateway" style="shape=umlLifeline;perimeter=lifelinePerimeter;whiteSpace=wrap;html=1;container=1;collapsible=0;recursiveResize=0;outlineConnect=0;rounded=1;shadow=0;comic=0;labelBackgroundColor=none;strokeWidth=1;fontFamily=Verdana;fontSize=12;align=center;" vertex="1" parent="1">
          <mxGeometry x="265" y="1570" width="100" height="580" as="geometry" />
        </mxCell>
        <mxCell id="B9X7SGs9vUSzsNQK_HK1-112" value="" style="html=1;points=[];perimeter=orthogonalPerimeter;rounded=0;shadow=0;comic=0;labelBackgroundColor=none;strokeWidth=1;fontFamily=Verdana;fontSize=12;align=center;" vertex="1" parent="B9X7SGs9vUSzsNQK_HK1-111">
          <mxGeometry x="45" y="100" width="10" height="400" as="geometry" />
        </mxCell>
        <mxCell id="B9X7SGs9vUSzsNQK_HK1-113" value=":OAuthProvider" style="shape=umlLifeline;perimeter=lifelinePerimeter;whiteSpace=wrap;html=1;container=1;collapsible=0;recursiveResize=0;outlineConnect=0;rounded=1;shadow=0;comic=0;labelBackgroundColor=none;strokeWidth=1;fontFamily=Verdana;fontSize=12;align=center;" vertex="1" parent="1">
          <mxGeometry x="425" y="1570" width="100" height="580" as="geometry" />
        </mxCell>
        <mxCell id="B9X7SGs9vUSzsNQK_HK1-115" value=":InternalService" style="shape=umlLifeline;perimeter=lifelinePerimeter;whiteSpace=wrap;html=1;container=1;collapsible=0;recursiveResize=0;outlineConnect=0;rounded=1;shadow=0;comic=0;labelBackgroundColor=none;strokeWidth=1;fontFamily=Verdana;fontSize=12;align=center;" vertex="1" parent="1">
          <mxGeometry x="565" y="1570" width="100" height="580" as="geometry" />
        </mxCell>
        <mxCell id="B9X7SGs9vUSzsNQK_HK1-116" value=":Integrator" style="shape=umlLifeline;perimeter=lifelinePerimeter;whiteSpace=wrap;html=1;container=1;collapsible=0;recursiveResize=0;outlineConnect=0;rounded=1;shadow=0;comic=0;labelBackgroundColor=none;strokeWidth=1;fontFamily=Verdana;fontSize=12;align=center;" vertex="1" parent="1">
          <mxGeometry x="125" y="1570" width="100" height="580" as="geometry" />
        </mxCell>
        <mxCell id="B9X7SGs9vUSzsNQK_HK1-117" value="" style="html=1;points=[];perimeter=orthogonalPerimeter;rounded=0;shadow=0;comic=0;labelBackgroundColor=none;strokeWidth=1;fontFamily=Verdana;fontSize=12;align=center;" vertex="1" parent="B9X7SGs9vUSzsNQK_HK1-116">
          <mxGeometry x="45" y="100" width="10" height="440" as="geometry" />
        </mxCell>
        <mxCell id="B9X7SGs9vUSzsNQK_HK1-122" value="" style="html=1;points=[];perimeter=orthogonalPerimeter;rounded=0;shadow=0;comic=0;labelBackgroundColor=none;strokeWidth=1;fontFamily=Verdana;fontSize=12;align=center;" vertex="1" parent="1">
          <mxGeometry x="610" y="1710" width="10" height="410" as="geometry" />
        </mxCell>
        <mxCell id="B9X7SGs9vUSzsNQK_HK1-123" style="edgeStyle=orthogonalEdgeStyle;rounded=0;orthogonalLoop=1;jettySize=auto;html=1;" edge="1" parent="1" source="B9X7SGs9vUSzsNQK_HK1-117">
          <mxGeometry relative="1" as="geometry">
            <mxPoint x="312" y="1690" as="targetPoint" />
            <Array as="points">
              <mxPoint x="312" y="1690" />
            </Array>
          </mxGeometry>
        </mxCell>
        <mxCell id="B9X7SGs9vUSzsNQK_HK1-124" value="/login&lt;br&gt;(client_id)" style="edgeLabel;html=1;align=center;verticalAlign=middle;resizable=0;points=[];" vertex="1" connectable="0" parent="B9X7SGs9vUSzsNQK_HK1-123">
          <mxGeometry x="0.2576" y="-1" relative="1" as="geometry">
            <mxPoint x="-28" y="-11" as="offset" />
          </mxGeometry>
        </mxCell>
        <mxCell id="B9X7SGs9vUSzsNQK_HK1-125" style="edgeStyle=orthogonalEdgeStyle;rounded=0;orthogonalLoop=1;jettySize=auto;html=1;entryX=0;entryY=0.049;entryDx=0;entryDy=0;entryPerimeter=0;" edge="1" parent="1" source="B9X7SGs9vUSzsNQK_HK1-112" target="B9X7SGs9vUSzsNQK_HK1-122">
          <mxGeometry relative="1" as="geometry">
            <mxPoint x="465" y="1730" as="targetPoint" />
            <Array as="points">
              <mxPoint x="410" y="1730" />
              <mxPoint x="410" y="1730" />
            </Array>
          </mxGeometry>
        </mxCell>
        <mxCell id="B9X7SGs9vUSzsNQK_HK1-126" value="/authenticate&lt;br&gt;(client_id)" style="edgeLabel;html=1;align=center;verticalAlign=middle;resizable=0;points=[];" vertex="1" connectable="0" parent="B9X7SGs9vUSzsNQK_HK1-125">
          <mxGeometry x="-0.3649" y="1" relative="1" as="geometry">
            <mxPoint x="28" as="offset" />
          </mxGeometry>
        </mxCell>
        <mxCell id="B9X7SGs9vUSzsNQK_HK1-127" style="edgeStyle=orthogonalEdgeStyle;rounded=0;orthogonalLoop=1;jettySize=auto;html=1;" edge="1" parent="1" source="B9X7SGs9vUSzsNQK_HK1-115">
          <mxGeometry relative="1" as="geometry">
            <Array as="points">
              <mxPoint x="510" y="1790" />
              <mxPoint x="510" y="1790" />
            </Array>
            <mxPoint x="319" y="1790" as="targetPoint" />
            <mxPoint x="470" y="1790.021276595745" as="sourcePoint" />
          </mxGeometry>
        </mxCell>
        <mxCell id="B9X7SGs9vUSzsNQK_HK1-128" value="jwt" style="edgeLabel;html=1;align=center;verticalAlign=middle;resizable=0;points=[];" vertex="1" connectable="0" parent="B9X7SGs9vUSzsNQK_HK1-127">
          <mxGeometry x="-0.1757" y="2" relative="1" as="geometry">
            <mxPoint x="-8" y="-2" as="offset" />
          </mxGeometry>
        </mxCell>
        <mxCell id="B9X7SGs9vUSzsNQK_HK1-129" value="jwt" style="edgeStyle=orthogonalEdgeStyle;rounded=0;orthogonalLoop=1;jettySize=auto;html=1;" edge="1" parent="1" source="B9X7SGs9vUSzsNQK_HK1-112">
          <mxGeometry relative="1" as="geometry">
            <Array as="points">
              <mxPoint x="180" y="1800" />
            </Array>
            <mxPoint x="180" y="1800" as="targetPoint" />
            <mxPoint as="offset" />
          </mxGeometry>
        </mxCell>
        <mxCell id="B9X7SGs9vUSzsNQK_HK1-136" value="auth server" style="text;html=1;align=center;verticalAlign=middle;resizable=0;points=[];autosize=1;strokeColor=none;fillColor=none;" vertex="1" parent="1">
          <mxGeometry x="435" y="1530" width="80" height="30" as="geometry" />
        </mxCell>
        <mxCell id="B9X7SGs9vUSzsNQK_HK1-137" value="client" style="text;html=1;align=center;verticalAlign=middle;resizable=0;points=[];autosize=1;strokeColor=none;fillColor=none;" vertex="1" parent="1">
          <mxGeometry x="150" y="1530" width="50" height="30" as="geometry" />
        </mxCell>
        <mxCell id="B9X7SGs9vUSzsNQK_HK1-138" value="resource owner" style="text;html=1;align=center;verticalAlign=middle;resizable=0;points=[];autosize=1;strokeColor=none;fillColor=none;" vertex="1" parent="1">
          <mxGeometry x="560" y="1530" width="110" height="30" as="geometry" />
        </mxCell>
        <mxCell id="B9X7SGs9vUSzsNQK_HK1-139" value="resource server" style="text;html=1;align=center;verticalAlign=middle;resizable=0;points=[];autosize=1;strokeColor=none;fillColor=none;" vertex="1" parent="1">
          <mxGeometry x="260" y="1530" width="110" height="30" as="geometry" />
        </mxCell>
        <mxCell id="B9X7SGs9vUSzsNQK_HK1-140" value="" style="endArrow=none;html=1;rounded=0;" edge="1" parent="1">
          <mxGeometry width="50" height="50" relative="1" as="geometry">
            <mxPoint x="10" y="1482" as="sourcePoint" />
            <mxPoint x="840" y="1482" as="targetPoint" />
          </mxGeometry>
        </mxCell>
        <mxCell id="B9X7SGs9vUSzsNQK_HK1-141" value="Gateway" style="shape=umlLifeline;perimeter=lifelinePerimeter;whiteSpace=wrap;html=1;container=1;collapsible=0;recursiveResize=0;outlineConnect=0;rounded=1;shadow=0;comic=0;labelBackgroundColor=none;strokeWidth=1;fontFamily=Verdana;fontSize=12;align=center;" vertex="1" parent="1">
          <mxGeometry x="265" y="2288" width="100" height="580" as="geometry" />
        </mxCell>
        <mxCell id="B9X7SGs9vUSzsNQK_HK1-142" value="" style="html=1;points=[];perimeter=orthogonalPerimeter;rounded=0;shadow=0;comic=0;labelBackgroundColor=none;strokeWidth=1;fontFamily=Verdana;fontSize=12;align=center;" vertex="1" parent="B9X7SGs9vUSzsNQK_HK1-141">
          <mxGeometry x="45" y="100" width="10" height="400" as="geometry" />
        </mxCell>
        <mxCell id="B9X7SGs9vUSzsNQK_HK1-143" value=":OAuthProvider" style="shape=umlLifeline;perimeter=lifelinePerimeter;whiteSpace=wrap;html=1;container=1;collapsible=0;recursiveResize=0;outlineConnect=0;rounded=1;shadow=0;comic=0;labelBackgroundColor=none;strokeWidth=1;fontFamily=Verdana;fontSize=12;align=center;" vertex="1" parent="1">
          <mxGeometry x="425" y="2288" width="100" height="580" as="geometry" />
        </mxCell>
        <mxCell id="B9X7SGs9vUSzsNQK_HK1-144" value=":InternalService" style="shape=umlLifeline;perimeter=lifelinePerimeter;whiteSpace=wrap;html=1;container=1;collapsible=0;recursiveResize=0;outlineConnect=0;rounded=1;shadow=0;comic=0;labelBackgroundColor=none;strokeWidth=1;fontFamily=Verdana;fontSize=12;align=center;" vertex="1" parent="1">
          <mxGeometry x="565" y="2288" width="100" height="580" as="geometry" />
        </mxCell>
        <mxCell id="B9X7SGs9vUSzsNQK_HK1-145" value=":Integrator" style="shape=umlLifeline;perimeter=lifelinePerimeter;whiteSpace=wrap;html=1;container=1;collapsible=0;recursiveResize=0;outlineConnect=0;rounded=1;shadow=0;comic=0;labelBackgroundColor=none;strokeWidth=1;fontFamily=Verdana;fontSize=12;align=center;" vertex="1" parent="1">
          <mxGeometry x="125" y="2288" width="100" height="580" as="geometry" />
        </mxCell>
        <mxCell id="B9X7SGs9vUSzsNQK_HK1-146" value="" style="html=1;points=[];perimeter=orthogonalPerimeter;rounded=0;shadow=0;comic=0;labelBackgroundColor=none;strokeWidth=1;fontFamily=Verdana;fontSize=12;align=center;" vertex="1" parent="B9X7SGs9vUSzsNQK_HK1-145">
          <mxGeometry x="45" y="100" width="10" height="440" as="geometry" />
        </mxCell>
        <mxCell id="B9X7SGs9vUSzsNQK_HK1-147" value="" style="html=1;points=[];perimeter=orthogonalPerimeter;rounded=0;shadow=0;comic=0;labelBackgroundColor=none;strokeWidth=1;fontFamily=Verdana;fontSize=12;align=center;" vertex="1" parent="1">
          <mxGeometry x="610" y="2428" width="10" height="410" as="geometry" />
        </mxCell>
        <mxCell id="B9X7SGs9vUSzsNQK_HK1-148" style="edgeStyle=orthogonalEdgeStyle;rounded=0;orthogonalLoop=1;jettySize=auto;html=1;" edge="1" parent="1" source="B9X7SGs9vUSzsNQK_HK1-146">
          <mxGeometry relative="1" as="geometry">
            <mxPoint x="312" y="2408" as="targetPoint" />
            <Array as="points">
              <mxPoint x="312" y="2408" />
            </Array>
          </mxGeometry>
        </mxCell>
        <mxCell id="B9X7SGs9vUSzsNQK_HK1-149" value="/login&lt;br&gt;(user, password)" style="edgeLabel;html=1;align=center;verticalAlign=middle;resizable=0;points=[];" vertex="1" connectable="0" parent="B9X7SGs9vUSzsNQK_HK1-148">
          <mxGeometry x="0.2576" y="-1" relative="1" as="geometry">
            <mxPoint x="-28" y="-21" as="offset" />
          </mxGeometry>
        </mxCell>
        <mxCell id="B9X7SGs9vUSzsNQK_HK1-150" style="edgeStyle=orthogonalEdgeStyle;rounded=0;orthogonalLoop=1;jettySize=auto;html=1;entryX=0;entryY=0.049;entryDx=0;entryDy=0;entryPerimeter=0;" edge="1" parent="1" source="B9X7SGs9vUSzsNQK_HK1-142" target="B9X7SGs9vUSzsNQK_HK1-147">
          <mxGeometry relative="1" as="geometry">
            <mxPoint x="465" y="2448" as="targetPoint" />
            <Array as="points">
              <mxPoint x="410" y="2448" />
              <mxPoint x="410" y="2448" />
            </Array>
          </mxGeometry>
        </mxCell>
        <mxCell id="B9X7SGs9vUSzsNQK_HK1-151" value="/authenticate" style="edgeLabel;html=1;align=center;verticalAlign=middle;resizable=0;points=[];" vertex="1" connectable="0" parent="B9X7SGs9vUSzsNQK_HK1-150">
          <mxGeometry x="-0.3649" y="1" relative="1" as="geometry">
            <mxPoint x="28" as="offset" />
          </mxGeometry>
        </mxCell>
        <mxCell id="B9X7SGs9vUSzsNQK_HK1-152" style="edgeStyle=orthogonalEdgeStyle;rounded=0;orthogonalLoop=1;jettySize=auto;html=1;" edge="1" parent="1" source="B9X7SGs9vUSzsNQK_HK1-144">
          <mxGeometry relative="1" as="geometry">
            <Array as="points">
              <mxPoint x="510" y="2508" />
              <mxPoint x="510" y="2508" />
            </Array>
            <mxPoint x="319" y="2508" as="targetPoint" />
            <mxPoint x="470" y="2508.021276595745" as="sourcePoint" />
          </mxGeometry>
        </mxCell>
        <mxCell id="B9X7SGs9vUSzsNQK_HK1-153" value="jwt" style="edgeLabel;html=1;align=center;verticalAlign=middle;resizable=0;points=[];" vertex="1" connectable="0" parent="B9X7SGs9vUSzsNQK_HK1-152">
          <mxGeometry x="-0.1757" y="2" relative="1" as="geometry">
            <mxPoint x="-8" y="-2" as="offset" />
          </mxGeometry>
        </mxCell>
        <mxCell id="B9X7SGs9vUSzsNQK_HK1-154" value="jwt" style="edgeStyle=orthogonalEdgeStyle;rounded=0;orthogonalLoop=1;jettySize=auto;html=1;" edge="1" parent="1" source="B9X7SGs9vUSzsNQK_HK1-142">
          <mxGeometry x="0.0015" relative="1" as="geometry">
            <Array as="points">
              <mxPoint x="180" y="2518" />
            </Array>
            <mxPoint x="180" y="2518" as="targetPoint" />
            <mxPoint as="offset" />
          </mxGeometry>
        </mxCell>
        <mxCell id="B9X7SGs9vUSzsNQK_HK1-155" value="auth server" style="text;html=1;align=center;verticalAlign=middle;resizable=0;points=[];autosize=1;strokeColor=none;fillColor=none;" vertex="1" parent="1">
          <mxGeometry x="435" y="2248" width="80" height="30" as="geometry" />
        </mxCell>
        <mxCell id="B9X7SGs9vUSzsNQK_HK1-156" value="client" style="text;html=1;align=center;verticalAlign=middle;resizable=0;points=[];autosize=1;strokeColor=none;fillColor=none;" vertex="1" parent="1">
          <mxGeometry x="150" y="2248" width="50" height="30" as="geometry" />
        </mxCell>
        <mxCell id="B9X7SGs9vUSzsNQK_HK1-157" value="resource owner" style="text;html=1;align=center;verticalAlign=middle;resizable=0;points=[];autosize=1;strokeColor=none;fillColor=none;" vertex="1" parent="1">
          <mxGeometry x="560" y="2248" width="110" height="30" as="geometry" />
        </mxCell>
        <mxCell id="B9X7SGs9vUSzsNQK_HK1-158" value="resource server" style="text;html=1;align=center;verticalAlign=middle;resizable=0;points=[];autosize=1;strokeColor=none;fillColor=none;" vertex="1" parent="1">
          <mxGeometry x="260" y="2248" width="110" height="30" as="geometry" />
        </mxCell>
        <mxCell id="B9X7SGs9vUSzsNQK_HK1-159" value="" style="endArrow=none;html=1;rounded=0;" edge="1" parent="1">
          <mxGeometry width="50" height="50" relative="1" as="geometry">
            <mxPoint x="10" y="2200" as="sourcePoint" />
            <mxPoint x="840" y="2200" as="targetPoint" />
          </mxGeometry>
        </mxCell>
        <mxCell id="B9X7SGs9vUSzsNQK_HK1-160" value="/login&lt;br&gt;(user, password)" style="edgeLabel;html=1;align=center;verticalAlign=middle;resizable=0;points=[];" vertex="1" connectable="0" parent="1">
          <mxGeometry x="425" y="2470" as="geometry" />
        </mxCell>
      </root>
    </mxGraphModel>
  </diagram>
</mxfile>
